<svg xmlns="http://www.w3.org/2000/svg" width="75" height="75" viewBox="0 0 75 75">
  <metadata><?xpacket begin="﻿" id="W5M0MpCehiHzreSzNTczkc9d"?>
<x:xmpmeta xmlns:x="adobe:ns:meta/" x:xmptk="Adobe XMP Core 5.6-c138 79.159824, 2016/09/14-01:09:01        ">
   <rdf:RDF xmlns:rdf="http://www.w3.org/1999/02/22-rdf-syntax-ns#">
      <rdf:Description rdf:about=""/>
   </rdf:RDF>
</x:xmpmeta>
      
<?xpacket end="w"?></metadata>
<defs>
    <style>
      .cls-1 {
        fill: #ae7c5b;
        fill-rule: evenodd;
      }
    </style>
  </defs>
  <path class="cls-1" d="M2361.07,389.441h-45.14a14.947,14.947,0,0,1-14.93-14.93v-1.4a14.949,14.949,0,0,1,14.93-14.931h45.14A14.949,14.949,0,0,1,2376,373.116v1.4A14.947,14.947,0,0,1,2361.07,389.441Zm-45.14-29.251A12.942,12.942,0,0,0,2303,373.116v1.4a12.942,12.942,0,0,0,12.93,12.926h45.14A12.942,12.942,0,0,0,2374,374.511v-1.4a12.942,12.942,0,0,0-12.93-12.926h-45.14Zm45.14,14.625h-45.14A14.948,14.948,0,0,1,2301,359.884v-1.393a14.95,14.95,0,0,1,14.93-14.932h45.14A14.95,14.95,0,0,1,2376,358.491v1.393A14.948,14.948,0,0,1,2361.07,374.815Zm-45.14-29.251A12.942,12.942,0,0,0,2303,358.491v1.393a12.944,12.944,0,0,0,12.93,12.928h45.14A12.944,12.944,0,0,0,2374,359.884v-1.393a12.942,12.942,0,0,0-12.93-12.927h-45.14ZM2331.88,404h-1.39a14.949,14.949,0,0,1-14.93-14.93V343.93A14.948,14.948,0,0,1,2330.49,329h1.39a14.942,14.942,0,0,1,14.93,14.931v45.142A14.942,14.942,0,0,1,2331.88,404Zm-1.39-73a12.943,12.943,0,0,0-12.93,12.927v45.142A12.943,12.943,0,0,0,2330.49,402h1.39a12.943,12.943,0,0,0,12.93-12.926V343.93A12.943,12.943,0,0,0,2331.88,331h-1.39Zm16.02,73h-1.4a14.94,14.94,0,0,1-14.92-14.93V343.93A14.94,14.94,0,0,1,2345.11,329h1.4a14.948,14.948,0,0,1,14.93,14.931v45.142A14.949,14.949,0,0,1,2346.51,404Zm-1.4-73a12.941,12.941,0,0,0-12.92,12.927v45.142A12.941,12.941,0,0,0,2345.11,402h1.4a12.943,12.943,0,0,0,12.93-12.926V343.93A12.943,12.943,0,0,0,2346.51,331h-1.4Z" transform="translate(-2301 -329)"/>
</svg>
