<?xml version="1.0" encoding="utf-8"?>
<!-- Generator: Adobe Illustrator 21.1.0, SVG Export Plug-In . SVG Version: 6.00 Build 0)  -->
<svg version="1.1" id="Layer_1" xmlns="http://www.w3.org/2000/svg" xmlns:xlink="http://www.w3.org/1999/xlink" x="0px" y="0px"
	 viewBox="0 0 75 75" style="enable-background:new 0 0 75 75;" xml:space="preserve">
<style type="text/css">
	.st0{fill:#AE7C5B;}
</style>
<path class="st0" d="M60.1,60.4H14.9C6.7,60.4,0,53.8,0,45.5v-1.4c0-8.2,6.7-14.9,14.9-14.9h45.1c8.2,0,14.9,6.7,14.9,14.9v1.4
	C75,53.8,68.3,60.4,60.1,60.4z M14.9,31.2C7.8,31.2,2,37,2,44.1v1.4c0,7.1,5.8,12.9,12.9,12.9h45.1c7.1,0,12.9-5.8,12.9-12.9v-1.4
	c0-7.1-5.8-12.9-12.9-12.9L14.9,31.2L14.9,31.2z M60.1,45.8H14.9C6.7,45.8,0,39.1,0,30.9v-1.4c0-8.2,6.7-14.9,14.9-14.9h45.1
	c8.2,0,14.9,6.7,14.9,14.9v1.4C75,39.1,68.3,45.8,60.1,45.8z M14.9,16.6C7.8,16.6,2,22.4,2,29.5v1.4C2,38,7.8,43.8,14.9,43.8h45.1
	C67.2,43.8,73,38,73,30.9v-1.4c0-7.1-5.8-12.9-12.9-12.9H14.9z M30.9,75h-1.4c-8.2,0-14.9-6.7-14.9-14.9V14.9
	C14.6,6.7,21.2,0,29.5,0h1.4c8.2,0,14.9,6.7,14.9,14.9v45.1C45.8,68.3,39.1,75,30.9,75z M29.5,2c-7.1,0-12.9,5.8-12.9,12.9v45.1
	c0,7.1,5.8,12.9,12.9,12.9h1.4c7.1,0,12.9-5.8,12.9-12.9V14.9C43.8,7.8,38,2,30.9,2H29.5z M45.5,75h-1.4c-8.2,0-14.9-6.7-14.9-14.9
	V14.9C29.2,6.7,35.9,0,44.1,0h1.4c8.2,0,14.9,6.7,14.9,14.9v45.1C60.4,68.3,53.8,75,45.5,75z M44.1,2C37,2,31.2,7.8,31.2,14.9v45.1
	C31.2,67.2,37,73,44.1,73h1.4c7.1,0,12.9-5.8,12.9-12.9V14.9C58.4,7.8,52.6,2,45.5,2H44.1z"/>
</svg>
